<svg xmlns="http://www.w3.org/2000/svg" width="64" height="64" viewBox="0 0 64 64"><rect width="64" height="64" rx="14" fill="#C19A55"></rect><polyline points="11,25 32,11 53,25" fill="none" stroke="#FBFAF7" stroke-width="5" stroke-linecap="butt" stroke-linejoin="miter"></polyline><path d="M36.13 31.59L36.03 34.33L35.71 34.33Q35.59 34.00 35.33 33.57Q35.08 33.15 34.66 32.77Q34.24 32.40 33.65 32.15Q33.05 31.90 32.25 31.90L32.25 31.90Q31.53 31.90 30.97 32.12Q30.42 32.34 30.04 32.74Q29.67 33.13 29.48 33.67Q29.29 34.22 29.29 34.88L29.29 34.88Q29.29 35.93 29.88 36.89Q30.48 37.85 31.37 38.79Q32.26 39.72 33.30 40.66Q34.34 41.60 35.24 42.61Q36.13 43.62 36.72 44.73Q37.32 45.83 37.32 47.11L37.32 47.11Q37.32 48.06 36.99 49.02Q36.66 49.98 35.97 50.74Q35.28 51.50 34.20 51.98Q33.11 52.45 31.62 52.45L31.62 52.45Q30.78 52.45 30.03 52.30Q29.28 52.15 28.64 51.92Q28.00 51.69 27.50 51.43Q26.99 51.17 26.67 50.95L26.67 50.95L27.00 47.71L27.37 47.71Q27.53 48.40 27.90 49.02Q28.26 49.64 28.80 50.12Q29.33 50.59 30.02 50.88Q30.71 51.17 31.53 51.17L31.53 51.17Q32.28 51.17 32.87 50.94Q33.46 50.71 33.89 50.31Q34.31 49.91 34.54 49.35Q34.77 48.79 34.77 48.13L34.77 48.13Q34.77 47.21 34.43 46.43Q34.09 45.64 33.55 44.94Q33.00 44.24 32.30 43.58Q31.60 42.92 30.87 42.25Q30.14 41.58 29.44 40.88Q28.75 40.18 28.20 39.38Q27.65 38.58 27.31 37.67Q26.98 36.75 26.98 35.65L26.98 35.65Q26.98 34.50 27.42 33.56Q27.87 32.63 28.61 31.98Q29.35 31.32 30.29 30.96Q31.22 30.61 32.22 30.61L32.22 30.61Q32.95 30.61 33.57 30.73Q34.18 30.85 34.67 31.01Q35.16 31.17 35.53 31.33Q35.90 31.49 36.13 31.59L36.13 31.59Z" fill="#FBFAF7"></path></svg>