<svg xmlns="http://www.w3.org/2000/svg" width="180" height="119" viewBox="0 0 180 119"><defs><clipPath id="topHalf"><rect x="0" y="0" width="120" height="60"></rect></clipPath></defs><polyline points="16,38 90,18 164,38" fill="none" stroke="#C19A55" stroke-width="5" stroke-linecap="butt" stroke-linejoin="miter"></polyline><path d="M25.78 54.94L25.69 57.40L25.40 57.40Q25.29 57.10 25.06 56.72Q24.83 56.33 24.46 56.00Q24.08 55.66 23.55 55.44Q23.01 55.21 22.29 55.21L22.29 55.21Q21.64 55.21 21.14 55.41Q20.64 55.61 20.30 55.96Q19.97 56.32 19.79 56.81Q19.62 57.30 19.62 57.89L19.62 57.89Q19.62 58.84 20.16 59.70Q20.69 60.57 21.50 61.41Q22.30 62.25 23.24 63.10Q24.17 63.94 24.98 64.85Q25.78 65.76 26.31 66.76Q26.85 67.75 26.85 68.90L26.85 68.90Q26.85 69.75 26.55 70.62Q26.25 71.48 25.64 72.17Q25.02 72.85 24.04 73.28Q23.06 73.71 21.72 73.71L21.72 73.71Q20.97 73.71 20.29 73.57Q19.61 73.43 19.04 73.23Q18.46 73.02 18.01 72.79Q17.55 72.55 17.26 72.35L17.26 72.35L17.57 69.44L17.90 69.44Q18.04 70.06 18.37 70.62Q18.70 71.18 19.18 71.61Q19.66 72.04 20.28 72.29Q20.90 72.55 21.64 72.55L21.64 72.55Q22.31 72.55 22.85 72.35Q23.38 72.14 23.76 71.78Q24.15 71.42 24.35 70.92Q24.55 70.41 24.55 69.82L24.55 69.82Q24.55 68.99 24.25 68.28Q23.95 67.58 23.45 66.95Q22.96 66.31 22.33 65.72Q21.71 65.13 21.05 64.53Q20.39 63.93 19.76 63.29Q19.14 62.66 18.64 61.94Q18.15 61.23 17.84 60.40Q17.54 59.58 17.54 58.59L17.54 58.59Q17.54 57.55 17.94 56.71Q18.34 55.87 19.01 55.28Q19.68 54.69 20.52 54.37Q21.36 54.05 22.26 54.05L22.26 54.05Q22.92 54.05 23.47 54.16Q24.03 54.26 24.47 54.41Q24.91 54.55 25.24 54.70Q25.57 54.84 25.78 54.94L25.78 54.94Z M38.81 55.42L38.81 64.93Q40.11 65.17 41.18 64.98Q42.25 64.78 43.03 64.16Q43.80 63.53 44.22 62.46Q44.65 61.40 44.65 59.85L44.65 59.85Q44.65 58.79 44.43 57.91Q44.21 57.03 43.76 56.42Q43.32 55.81 42.65 55.47Q41.98 55.13 41.08 55.13L41.08 55.13Q40.51 55.13 40.09 55.18Q39.67 55.23 39.38 55.28L39.38 55.28Q39.04 55.35 38.81 55.42L38.81 55.42ZM36.03 54.45L36.03 54.40Q36.30 54.42 36.59 54.45L36.59 54.45Q36.84 54.48 37.15 54.48Q37.46 54.49 37.78 54.49L37.78 54.49Q38.30 54.49 39.18 54.36Q40.05 54.24 41.41 54.24L41.41 54.24Q42.68 54.24 43.75 54.61Q44.82 54.98 45.62 55.69Q46.41 56.40 46.85 57.42Q47.29 58.44 47.29 59.75L47.29 59.75Q47.29 61.50 46.59 62.78Q45.89 64.06 44.72 64.85Q43.55 65.64 42.02 65.93Q40.49 66.21 38.81 65.96L38.81 65.96L38.81 68.15Q38.81 69.27 38.85 70.10Q38.88 70.94 38.93 71.55Q38.97 72.15 39.04 72.56Q39.12 72.97 39.20 73.25L39.20 73.25L39.20 73.30L36.03 73.30L36.03 73.25Q36.11 72.97 36.18 72.56Q36.26 72.15 36.31 71.55Q36.36 70.94 36.39 70.10Q36.41 69.27 36.41 68.15L36.41 68.15L36.41 59.56Q36.41 58.44 36.39 57.61Q36.36 56.77 36.31 56.16Q36.26 55.54 36.18 55.13Q36.11 54.73 36.03 54.45L36.03 54.45Z M68.88 68.15L68.88 64.26Q68.35 64.24 67.56 64.24Q66.77 64.23 65.84 64.22Q64.91 64.20 63.90 64.20Q62.89 64.19 61.93 64.18Q60.97 64.18 60.10 64.19Q59.23 64.20 58.58 64.23L58.58 64.23L58.58 68.15Q58.58 69.27 58.62 70.10Q58.65 70.94 58.69 71.55Q58.74 72.15 58.81 72.56Q58.89 72.97 58.97 73.25L58.97 73.25L58.97 73.30L55.80 73.30L55.80 73.25Q55.88 72.97 55.95 72.56Q56.03 72.15 56.08 71.55Q56.13 70.94 56.16 70.10Q56.18 69.27 56.18 68.15L56.18 68.15L56.18 59.56Q56.18 58.44 56.16 57.61Q56.13 56.77 56.08 56.16Q56.03 55.54 55.95 55.13Q55.88 54.73 55.80 54.45L55.80 54.45L55.80 54.40L58.97 54.40L58.97 54.45Q58.89 54.73 58.81 55.13Q58.74 55.54 58.69 56.16Q58.65 56.77 58.62 57.61Q58.58 58.44 58.58 59.56L58.58 59.56L58.58 62.94Q59.27 62.97 60.14 62.97Q61.01 62.98 61.96 62.97Q62.91 62.97 63.89 62.95Q64.87 62.94 65.79 62.92Q66.70 62.90 67.50 62.87Q68.30 62.85 68.88 62.82L68.88 62.82L68.88 59.56Q68.88 58.44 68.85 57.61Q68.81 56.77 68.77 56.16Q68.72 55.54 68.65 55.13Q68.58 54.73 68.50 54.45L68.50 54.45L68.50 54.40L71.66 54.40L71.66 54.45Q71.58 54.73 71.51 55.13Q71.44 55.54 71.38 56.16Q71.33 56.77 71.30 57.61Q71.28 58.44 71.28 59.56L71.28 59.56L71.28 68.15Q71.28 69.27 71.30 70.10Q71.33 70.94 71.38 71.55Q71.44 72.15 71.51 72.56Q71.58 72.97 71.66 73.25L71.66 73.25L71.66 73.30L68.50 73.30L68.50 73.25Q68.58 72.97 68.65 72.56Q68.72 72.15 68.77 71.55Q68.81 70.94 68.85 70.10Q68.88 69.27 68.88 68.15L68.88 68.15Z M94.55 56.51L89.07 64.23L89.07 68.15Q89.07 69.27 89.10 70.10Q89.12 70.94 89.18 71.55Q89.23 72.15 89.30 72.56Q89.37 72.97 89.45 73.25L89.45 73.25L89.45 73.30L86.29 73.30L86.29 73.25Q86.37 72.97 86.44 72.56Q86.51 72.15 86.56 71.55Q86.61 70.94 86.64 70.10Q86.67 69.27 86.67 68.15L86.67 68.15L86.67 64.49L80.78 56.48Q80.47 56.07 80.18 55.73Q79.88 55.38 79.62 55.13Q79.35 54.87 79.14 54.70Q78.93 54.53 78.81 54.45L78.81 54.45L78.81 54.40L82.81 54.40Q82.81 54.70 83.07 55.39Q83.32 56.08 83.99 57.02L83.99 57.02L88.32 62.94L92.55 56.76Q92.78 56.43 93.00 56.08Q93.22 55.74 93.41 55.42Q93.59 55.11 93.70 54.84Q93.82 54.58 93.82 54.40L93.82 54.40L96.39 54.40L96.39 54.45Q96.10 54.70 95.61 55.19Q95.12 55.69 94.55 56.51L94.55 56.51Z M106.86 65.18L106.86 68.15Q106.86 69.27 106.90 70.10Q106.93 70.94 106.97 71.55Q107.02 72.15 107.09 72.56Q107.17 72.97 107.24 73.25L107.24 73.25L107.24 73.30L104.08 73.30L104.08 73.25Q104.16 72.97 104.23 72.56Q104.30 72.15 104.35 71.55Q104.40 70.94 104.43 70.11Q104.46 69.28 104.46 68.15L104.46 68.15L104.46 59.56Q104.46 58.44 104.43 57.61Q104.40 56.77 104.35 56.16Q104.30 55.56 104.23 55.14Q104.16 54.73 104.08 54.45L104.08 54.45L104.08 54.40L104.63 54.45Q104.89 54.48 105.19 54.48Q105.50 54.49 105.83 54.49L105.83 54.49Q106.35 54.49 107.23 54.36Q108.10 54.24 109.46 54.24L109.46 54.24Q110.73 54.24 111.80 54.58Q112.87 54.92 113.67 55.58Q114.46 56.24 114.90 57.20Q115.34 58.15 115.34 59.37L115.34 59.37Q115.34 60.32 115.10 61.13Q114.85 61.94 114.41 62.60Q113.97 63.26 113.35 63.76Q112.73 64.27 111.96 64.61L111.96 64.61L116.59 71.11Q116.93 71.60 117.23 71.96Q117.53 72.31 117.80 72.57Q118.07 72.83 118.32 72.99Q118.57 73.16 118.83 73.25L118.83 73.25L118.83 73.30L115.02 73.30Q114.98 73.05 114.77 72.64Q114.55 72.22 114.26 71.81L114.26 71.81L109.59 65.23Q109.29 65.26 108.99 65.28Q108.68 65.30 108.37 65.30L108.37 65.30Q108.00 65.30 107.62 65.27Q107.24 65.25 106.86 65.18L106.86 65.18ZM106.86 55.42L106.86 64.15Q107.22 64.23 107.59 64.26Q107.96 64.30 108.30 64.30L108.30 64.30Q109.29 64.30 110.11 64.00Q110.92 63.70 111.50 63.10Q112.07 62.49 112.39 61.59Q112.70 60.68 112.70 59.47L112.70 59.47Q112.70 58.48 112.48 57.68Q112.25 56.87 111.81 56.31Q111.37 55.75 110.70 55.44Q110.03 55.13 109.13 55.13L109.13 55.13Q108.22 55.13 107.68 55.23Q107.14 55.32 106.86 55.42L106.86 55.42Z M134.60 54.08L134.60 54.08Q136.80 54.08 138.66 54.80Q140.53 55.52 141.89 56.82Q143.24 58.11 144.01 59.93Q144.77 61.75 144.77 63.95L144.77 63.95Q144.77 65.21 144.48 66.42Q144.19 67.63 143.63 68.71Q143.07 69.79 142.25 70.71Q141.44 71.63 140.39 72.29Q139.34 72.96 138.08 73.33Q136.81 73.71 135.35 73.71L135.35 73.71Q133.14 73.71 131.28 73.00Q129.41 72.30 128.06 71.01Q126.70 69.72 125.93 67.90Q125.17 66.09 125.17 63.88L125.17 63.88Q125.17 62.62 125.46 61.41Q125.75 60.20 126.31 59.10Q126.87 58.01 127.68 57.09Q128.49 56.18 129.54 55.50Q130.59 54.83 131.86 54.46Q133.13 54.08 134.60 54.08ZM135.35 72.52L135.35 72.52Q136.81 72.52 138.02 72.00Q139.24 71.47 140.11 70.47Q140.99 69.46 141.48 68.02Q141.96 66.58 141.96 64.75L141.96 64.75Q141.96 62.71 141.50 60.98Q141.03 59.25 140.11 57.98Q139.18 56.70 137.81 55.98Q136.43 55.27 134.60 55.27L134.60 55.27Q133.13 55.27 131.92 55.79Q130.71 56.31 129.83 57.30Q128.95 58.29 128.46 59.72Q127.98 61.16 127.98 62.99L127.98 62.99Q127.98 65.01 128.44 66.76Q128.90 68.50 129.82 69.78Q130.75 71.06 132.13 71.79Q133.51 72.52 135.35 72.52Z M161.66 54.94L161.56 57.40L161.27 57.40Q161.17 57.10 160.94 56.72Q160.71 56.33 160.33 56.00Q159.95 55.66 159.42 55.44Q158.89 55.21 158.16 55.21L158.16 55.21Q157.52 55.21 157.01 55.41Q156.51 55.61 156.18 55.96Q155.84 56.32 155.67 56.81Q155.50 57.30 155.50 57.89L155.50 57.89Q155.50 58.84 156.03 59.70Q156.57 60.57 157.37 61.41Q158.17 62.25 159.11 63.10Q160.05 63.94 160.85 64.85Q161.66 65.76 162.19 66.76Q162.72 67.75 162.72 68.90L162.72 68.90Q162.72 69.75 162.43 70.62Q162.13 71.48 161.51 72.17Q160.89 72.85 159.91 73.28Q158.94 73.71 157.59 73.71L157.59 73.71Q156.84 73.71 156.16 73.57Q155.49 73.43 154.91 73.23Q154.34 73.02 153.88 72.79Q153.43 72.55 153.14 72.35L153.14 72.35L153.44 69.44L153.77 69.44Q153.92 70.06 154.25 70.62Q154.58 71.18 155.06 71.61Q155.54 72.04 156.16 72.29Q156.78 72.55 157.52 72.55L157.52 72.55Q158.19 72.55 158.72 72.35Q159.26 72.14 159.64 71.78Q160.02 71.42 160.22 70.92Q160.43 70.41 160.43 69.82L160.43 69.82Q160.43 68.99 160.13 68.28Q159.82 67.58 159.33 66.95Q158.83 66.31 158.21 65.72Q157.58 65.13 156.92 64.53Q156.26 63.93 155.64 63.29Q155.01 62.66 154.52 61.94Q154.02 61.23 153.72 60.40Q153.42 59.58 153.42 58.59L153.42 58.59Q153.42 57.55 153.82 56.71Q154.22 55.87 154.89 55.28Q155.55 54.69 156.39 54.37Q157.24 54.05 158.14 54.05L158.14 54.05Q158.79 54.05 159.35 54.16Q159.90 54.26 160.34 54.41Q160.79 54.55 161.11 54.70Q161.44 54.84 161.66 54.94L161.66 54.94Z" fill="#262B33"></path><path d="M25.44 97.68L25.44 98.52L30.48 98.52L30.48 97.68L25.44 97.68ZM30.77 94.74L29.88 94.74L29.88 102.09L30.77 102.09L30.77 94.74ZM25.84 94.74L24.95 94.74L24.95 102.09L25.84 102.09L25.84 94.74Z M37.39 98.42L37.39 98.42Q37.39 97.59 37.75 96.93Q38.11 96.28 38.74 95.91Q39.37 95.53 40.17 95.53L40.17 95.53Q40.98 95.53 41.61 95.91Q42.23 96.28 42.59 96.93Q42.95 97.59 42.95 98.42L42.95 98.42Q42.95 99.24 42.59 99.90Q42.23 100.55 41.61 100.92Q40.98 101.30 40.17 101.30L40.17 101.30Q39.37 101.30 38.74 100.92Q38.11 100.55 37.75 99.90Q37.39 99.24 37.39 98.42ZM36.44 98.42L36.44 98.42Q36.44 99.21 36.72 99.91Q37.00 100.60 37.51 101.11Q38.01 101.62 38.69 101.91Q39.37 102.20 40.17 102.20L40.17 102.20Q40.98 102.20 41.66 101.91Q42.34 101.62 42.84 101.11Q43.34 100.60 43.62 99.91Q43.90 99.21 43.90 98.42L43.90 98.42Q43.90 97.61 43.62 96.92Q43.34 96.23 42.84 95.72Q42.34 95.21 41.66 94.92Q40.98 94.64 40.17 94.64L40.17 94.64Q39.37 94.64 38.69 94.92Q38.01 95.21 37.51 95.72Q37.00 96.23 36.72 96.92Q36.44 97.61 36.44 98.42Z M50.04 102.09L50.59 97.12L52.98 101.41L55.38 97.12L55.92 102.09L56.81 102.09L55.92 94.37L52.98 99.70L50.04 94.37L49.15 102.09L50.04 102.09Z M62.98 101.25L62.98 102.09L66.68 102.09L66.68 101.25L62.98 101.25ZM62.98 94.74L62.98 95.58L66.68 95.58L66.68 94.74L62.98 94.74ZM62.98 97.68L62.98 98.52L66.47 98.52L66.47 97.68L62.98 97.68ZM63.38 94.74L62.48 94.74L62.48 102.09L63.38 102.09L63.38 94.74Z M80.50 99.86L80.50 99.86L79.79 100.35Q80.03 100.83 80.41 101.26Q80.80 101.68 81.31 101.94Q81.82 102.20 82.41 102.20L82.41 102.20Q82.85 102.20 83.26 102.05Q83.66 101.90 83.98 101.63Q84.30 101.36 84.49 100.97Q84.67 100.58 84.67 100.10L84.67 100.10Q84.67 99.59 84.49 99.23Q84.31 98.87 84.04 98.61Q83.76 98.35 83.43 98.18Q83.11 98.02 82.81 97.91L82.81 97.91Q82.17 97.69 81.80 97.47Q81.43 97.24 81.27 96.98Q81.11 96.72 81.11 96.42L81.11 96.42Q81.11 96.06 81.38 95.77Q81.66 95.49 82.26 95.49L82.26 95.49Q82.69 95.49 82.99 95.65Q83.29 95.82 83.50 96.08Q83.71 96.35 83.84 96.62L83.84 96.62L84.61 96.18Q84.43 95.79 84.11 95.44Q83.80 95.09 83.35 94.86Q82.91 94.64 82.31 94.64L82.31 94.64Q81.69 94.64 81.21 94.88Q80.72 95.13 80.45 95.56Q80.18 95.99 80.18 96.54L80.18 96.54Q80.18 97.04 80.37 97.39Q80.57 97.73 80.87 97.97Q81.17 98.21 81.51 98.36Q81.85 98.51 82.12 98.60L82.12 98.60Q82.54 98.75 82.91 98.94Q83.29 99.12 83.52 99.41Q83.75 99.71 83.75 100.20L83.75 100.20Q83.75 100.70 83.39 101.03Q83.03 101.36 82.45 101.36L82.45 101.36Q82.00 101.36 81.66 101.17Q81.31 100.98 81.03 100.64Q80.75 100.31 80.50 99.86Z M90.89 101.25L90.89 102.09L94.59 102.09L94.59 101.25L90.89 101.25ZM90.89 94.74L90.89 95.58L94.59 95.58L94.59 94.74L90.89 94.74ZM90.89 97.68L90.89 98.52L94.38 98.52L94.38 97.68L90.89 97.68ZM91.29 94.74L90.39 94.74L90.39 102.09L91.29 102.09L91.29 94.74Z M102.89 98.47L101.89 98.47L104.41 102.09L105.51 102.09L102.89 98.47ZM101.47 94.74L100.58 94.74L100.58 102.09L101.47 102.09L101.47 94.74ZM101.07 94.74L101.07 95.53L102.57 95.53Q103.05 95.53 103.41 95.70Q103.77 95.86 103.98 96.18Q104.18 96.49 104.18 96.95L104.18 96.95Q104.18 97.40 103.98 97.71Q103.77 98.03 103.41 98.19Q103.05 98.36 102.57 98.36L102.57 98.36L101.07 98.36L101.07 99.15L102.57 99.15Q103.29 99.15 103.85 98.88Q104.41 98.61 104.74 98.12Q105.07 97.62 105.07 96.95L105.07 96.95Q105.07 96.26 104.74 95.77Q104.41 95.28 103.85 95.01Q103.29 94.74 102.57 94.74L102.57 94.74L101.07 94.74Z M115.91 94.74L113.49 100.43L111.08 94.74L110.08 94.74L113.49 102.46L116.91 94.74L115.91 94.74Z M123.10 94.74L122.21 94.74L122.21 102.09L123.10 102.09L123.10 94.74Z M129.72 98.42L129.72 98.42Q129.72 97.55 130.10 96.91Q130.48 96.26 131.10 95.90Q131.72 95.53 132.45 95.53L132.45 95.53Q132.97 95.53 133.41 95.66Q133.84 95.80 134.20 96.05Q134.56 96.29 134.81 96.62L134.81 96.62L134.81 95.44Q134.35 95.03 133.80 94.83Q133.25 94.64 132.45 94.64L132.45 94.64Q131.68 94.64 131.01 94.91Q130.35 95.19 129.84 95.70Q129.34 96.21 129.05 96.90Q128.77 97.60 128.77 98.42L128.77 98.42Q128.77 99.23 129.05 99.93Q129.34 100.62 129.84 101.13Q130.35 101.64 131.01 101.92Q131.68 102.20 132.45 102.20L132.45 102.20Q133.25 102.20 133.80 102.00Q134.35 101.80 134.81 101.39L134.81 101.39L134.81 100.21Q134.56 100.54 134.20 100.78Q133.84 101.03 133.41 101.17Q132.97 101.30 132.45 101.30L132.45 101.30Q131.72 101.30 131.10 100.94Q130.48 100.57 130.10 99.92Q129.72 99.27 129.72 98.42Z M141.29 101.25L141.29 102.09L144.99 102.09L144.99 101.25L141.29 101.25ZM141.29 94.74L141.29 95.58L144.99 95.58L144.99 94.74L141.29 94.74ZM141.29 97.68L141.29 98.52L144.78 98.52L144.78 97.68L141.29 97.68ZM141.69 94.74L140.79 94.74L140.79 102.09L141.69 102.09L141.69 94.74Z M151.25 99.86L151.25 99.86L150.54 100.35Q150.78 100.83 151.16 101.26Q151.55 101.68 152.05 101.94Q152.56 102.20 153.16 102.20L153.16 102.20Q153.60 102.20 154.01 102.05Q154.41 101.90 154.73 101.63Q155.05 101.36 155.24 100.97Q155.42 100.58 155.42 100.10L155.42 100.10Q155.42 99.59 155.24 99.23Q155.06 98.87 154.78 98.61Q154.51 98.35 154.18 98.18Q153.86 98.02 153.56 97.91L153.56 97.91Q152.92 97.69 152.55 97.47Q152.18 97.24 152.02 96.98Q151.86 96.72 151.86 96.42L151.86 96.42Q151.86 96.06 152.13 95.77Q152.41 95.49 153.01 95.49L153.01 95.49Q153.44 95.49 153.73 95.65Q154.03 95.82 154.24 96.08Q154.45 96.35 154.59 96.62L154.59 96.62L155.36 96.18Q155.18 95.79 154.86 95.44Q154.55 95.09 154.10 94.86Q153.66 94.64 153.06 94.64L153.06 94.64Q152.44 94.64 151.96 94.88Q151.47 95.13 151.20 95.56Q150.93 95.99 150.93 96.54L150.93 96.54Q150.93 97.04 151.12 97.39Q151.31 97.73 151.62 97.97Q151.92 98.21 152.26 98.36Q152.60 98.51 152.87 98.60L152.87 98.60Q153.29 98.75 153.66 98.94Q154.03 99.12 154.27 99.41Q154.50 99.71 154.50 100.20L154.50 100.20Q154.50 100.70 154.14 101.03Q153.78 101.36 153.19 101.36L153.19 101.36Q152.75 101.36 152.41 101.17Q152.06 100.98 151.78 100.64Q151.50 100.31 151.25 99.86Z" fill="#C19A55"></path></svg>